<svg width="649" height="437" viewBox="0 0 649 437" fill="none" xmlns="http://www.w3.org/2000/svg">
<path d="M191.414 303.559L184.334 320.038C170.499 314.748 157.763 307.383 146.126 297.943C132.617 305.349 117.968 309.052 102.18 309.052C77.1967 309.052 56.7296 300.425 40.7791 283.173C24.8285 265.839 16.8533 243.622 16.8533 216.522C16.8533 189.667 24.5844 167.532 40.0466 150.116C55.5089 132.701 76.3829 123.993 102.669 123.993C127.652 123.993 148.12 132.497 164.07 149.506C180.102 166.514 188.118 188.772 188.118 216.278C188.118 245.738 179.125 269.216 161.14 286.713C171.232 293.956 181.323 299.571 191.414 303.559ZM142.586 273.773C156.583 260.834 163.582 241.75 163.582 216.522C163.582 193.98 157.926 176.321 146.614 163.544C135.384 150.686 120.735 144.257 102.669 144.257C84.6023 144.257 69.8725 150.401 58.4792 162.689C47.086 174.978 41.3894 192.922 41.3894 216.522C41.3894 239.634 47.086 257.457 58.4792 269.989C69.8725 282.522 84.6023 288.788 102.669 288.788C111.539 288.788 119.514 287.201 126.594 284.027C118.701 278.982 110.888 275.564 103.157 273.773L108.894 256.439C123.461 260.59 134.692 266.368 142.586 273.773ZM321.419 306H301.765V286.957H301.155C291.227 301.687 277.677 309.052 260.506 309.052C251.472 309.052 243.09 306.977 235.359 302.826C227.709 298.594 222.582 292.816 219.978 285.492C217.455 278.087 216.194 268.524 216.194 256.806V176.483H238.167V248.261C238.167 259.735 238.696 267.955 239.754 272.919C240.893 277.883 243.782 281.993 248.421 285.248C253.059 288.422 258.593 290.009 265.022 290.009C273.323 290.009 281.135 287.16 288.46 281.464C295.784 275.686 299.446 263.764 299.446 245.697V176.483H321.419V306ZM377.571 306H355.598V176.483H377.571V306ZM377.571 151.947H355.598V127.045H377.571V151.947ZM514.29 306H399.544V288.3L482.063 193.695C472.379 194.265 464.119 194.55 457.283 194.55H404.304V176.483H510.261V190.766L440.071 272.797C438.688 274.506 435.107 278.493 429.329 284.76C427.945 286.062 427.01 287.16 426.521 288.056C434.903 287.323 444.14 286.957 454.231 286.957H514.29V306ZM639.29 306H524.544V288.3L607.063 193.695C597.379 194.265 589.119 194.55 582.283 194.55H529.304V176.483H635.261V190.766L565.071 272.797C563.688 274.506 560.107 278.493 554.329 284.76C552.945 286.062 552.01 287.16 551.521 288.056C559.903 287.323 569.14 286.957 579.231 286.957H639.29V306Z" fill="white"/>
<path d="M50.5544 67.8337H39.1873V98.115H34.6169V67.8337H23.3435V63.7556H50.5544V67.8337ZM82.4529 98.115H77.8826V81.9431H60.0232V98.115H55.4763V63.7556H60.0232V77.865H77.8826V63.7556H82.4529V98.115ZM115.781 98.115H90.1169V63.7556H114.984V67.8337H94.6638V78.3337H113.672V82.4119H94.6638V94.0369H115.781V98.115Z" fill="white"/>
<rect x="22.2888" y="360.894" width="153.223" height="16.8839" fill="#FF0000"/>
<rect x="329.266" y="360.894" width="153.223" height="16.8839" fill="#BD00FF"/>
<rect x="175.778" y="360.894" width="153.223" height="16.8839" fill="#FF9000"/>
<rect x="482.755" y="360.894" width="153.223" height="16.8839" fill="#00FFD1"/>
</svg>
